<svg width="784" height="413" viewBox="0 0 784 413" fill="none" xmlns="http://www.w3.org/2000/svg">
<rect width="784" height="413" fill="black"/>
<path d="M370.156 193.969H384.781V198.797H380.047V225H374.891V198.797H370.156V193.969ZM405.031 208.359L401.656 211.734L405.031 215.156V225H399.875V214.172H394.672V225H389.516V193.969H405.031V208.359ZM399.875 209.297V198.797H394.672V209.297H399.875ZM410.094 193.969H425.656V225H420.453V214.172H415.297V225H410.094V193.969ZM420.453 209.297V198.797H415.297V209.297H420.453ZM430.578 193.969H447.078V225H430.578V220.125H432.219V198.797H430.578V193.969ZM441.922 220.125V198.797H437.375V220.125H441.922ZM452.188 225V193.969H457.344V225H452.188ZM472.812 193.969H477.969V225H472.812V205.594L467.609 200.438V225H462.453V193.969H467.609L472.812 199.125V193.969ZM488.281 198.797V220.125H493.438V209.484H498.641V225H483.078V193.969H498.641V198.797H488.281ZM524.422 198.797V209.297H530.422V214.172H524.422V225H519.266V193.969H533.047V198.797H524.422ZM537.875 225V193.969H543.031V225H537.875ZM553.344 198.797V220.125H558.5V209.484H563.703V225H548.141V193.969H563.703V198.797H553.344ZM584.328 193.969V225H579.125V211.922H573.969V225H568.766V193.969H573.969V207.047H579.125V193.969H584.328ZM589.062 193.969H603.688V198.797H598.953V225H593.797V198.797H589.062V193.969ZM623.984 193.969H639.547V202.594H634.344V198.797H629.188V220.125H634.344V216.422H639.547V225H623.984V193.969ZM654.969 217.219H660.172V225H644.609V193.969H649.812V220.125H654.969V217.219ZM675.406 193.969H680.609V225H665.047V193.969H670.25V220.125H675.406V193.969ZM697.859 209.484L701.234 212.859V225H685.719V193.969H701.234V206.062L697.859 209.484ZM690.875 198.797V207.047H696.078V198.797H690.875ZM696.078 220.125V211.922H690.875V220.125H696.078Z" fill="white"/>
<path fill-rule="evenodd" clip-rule="evenodd" d="M249.714 116.654L300.684 167.624V245.568L249.763 296.489L247.208 294.08H234.659L206.596 267.619L178.533 294.08H165.984L163.429 296.489L112.508 245.568V167.624L163.478 116.654L165.984 119.017H178.533L206.596 145.478L234.659 119.017H247.208L249.714 116.654ZM137.628 164.052H177.726V177.301H164.741H157.796L164.741 184.246V249.14H150.592V177.301H137.628V164.052ZM200.421 184.246V206.081H216.873V219.44H200.421V249.14H186.273V164.052H224.068V177.301H200.421H193.477L200.421 184.246ZM232.878 164.052H275.564V187.699H261.284V177.301H247.157H240.213L247.157 184.246V235.782H261.284V225.626H275.564V249.14H232.878V164.052Z" fill="white"/>
<path fill-rule="evenodd" clip-rule="evenodd" d="M262.221 317.278L244.623 300.685H232.074L206.596 276.661L181.118 300.685H168.569L150.971 317.278L157.886 324.192H255.306L262.221 317.278Z" fill="#2CAC3D"/>
<path fill-rule="evenodd" clip-rule="evenodd" d="M262.221 95.9148L244.623 112.508H232.074L206.596 136.531L181.118 112.508H168.569L150.971 95.9148L157.886 89H255.306L262.221 95.9148Z" fill="#E02424"/>
<path fill-rule="evenodd" clip-rule="evenodd" d="M157.886 89H255.306L324.192 157.886V255.306L255.306 324.192H157.886L89 255.306V157.886L157.886 89ZM158.975 91.629L91.6292 158.975V254.217L158.975 321.563H254.217L321.563 254.217V158.975L254.217 91.629H158.975Z" fill="white"/>
</svg>
