<svg width="257" height="257" viewBox="0 0 257 257" fill="none" xmlns="http://www.w3.org/2000/svg">
<path fill-rule="evenodd" clip-rule="evenodd" d="M175.616 30.2178L231.312 85.9143V171.085L175.67 226.728L172.877 224.095H159.165L128.5 195.181L97.8349 224.095H84.1226L81.3304 226.728L25.6877 171.085V85.9143L81.3843 30.2178L84.1226 32.8002H97.8349L128.5 61.7146L159.165 32.8002H172.877L175.616 30.2178ZM53.137 82.0112H96.9531V96.4887H82.7636H75.1751L82.7636 104.078V174.989H67.3031V96.4887H53.137V82.0112ZM121.753 104.078V127.937H139.73V142.534H121.753V174.989H106.292V82.0112H147.592V96.4887H121.753H114.164L121.753 104.078ZM157.219 82.0112H203.863V107.85H188.258V96.4887H172.822H165.234L172.822 104.078V160.392H188.258V149.294H203.863V174.989H157.219V82.0112Z" fill="#4A454E"/>
<path fill-rule="evenodd" clip-rule="evenodd" d="M189.283 249.444L170.053 231.312H156.34L128.5 205.061L100.66 231.312H86.9473L67.7175 249.444L75.2735 257H181.726L189.283 249.444Z" fill="#4A454E"/>
<path fill-rule="evenodd" clip-rule="evenodd" d="M189.283 249.444L170.053 231.312H156.34L128.5 205.061L100.66 231.312H86.9473L67.7175 249.444L75.2735 257H181.726L189.283 249.444Z" fill="#4A454E"/>
<path fill-rule="evenodd" clip-rule="evenodd" d="M189.283 7.55601L170.053 25.6878H156.34L128.5 51.9385L100.66 25.6878H86.9473L67.7175 7.55601L75.2735 0H181.726L189.283 7.55601Z" fill="#4A454E"/>
<path fill-rule="evenodd" clip-rule="evenodd" d="M75.2736 0H181.726L257 75.2736V181.726L181.726 257H75.2736L0 181.726V75.2736L75.2736 0ZM76.4637 2.87276L2.87299 76.4635V180.536L76.4637 254.127H180.536L254.127 180.536V76.4635L180.536 2.87276H76.4637Z" fill="#4A454E"/>
</svg>
