<svg width="108" height="109" viewBox="0 0 108 109" fill="none" xmlns="http://www.w3.org/2000/svg">
<path fill-rule="evenodd" clip-rule="evenodd" d="M65.9038 30.4855L79.828 44.4096V65.7024L65.9174 79.613L65.2193 78.9549H61.7912L54.1249 71.7263L46.4587 78.9549H43.0306L42.3325 79.613L28.4219 65.7024V44.4096L42.346 30.4855L43.0306 31.1311H46.4587L54.1249 38.3597L61.7912 31.1311H65.2193L65.9038 30.4855ZM35.2842 43.4338H46.2382V47.0532H42.6908H40.7937L42.6908 48.9505V66.6782H38.8257V47.0532H35.2842V43.4338ZM52.4381 48.9505V54.9152H56.9323V58.5646H52.4381V66.6782H48.5731V43.4338H58.8979V47.0532H52.4381H50.541L52.4381 48.9505ZM61.3046 43.4338H72.9656V49.8936H69.0645V47.0532H65.2054H63.3084L65.2054 48.9505V63.0289H69.0645V60.2545H72.9656V66.6782H61.3046V43.4338Z" fill="#4A454E"/>
<path fill-rule="evenodd" clip-rule="evenodd" d="M69.3207 85.292L64.5133 80.7591H61.0851L54.125 74.1964L47.165 80.7591H43.7369L38.9294 85.292L40.8184 87.181H67.4316L69.3207 85.292Z" fill="#4A454E"/>
<path fill-rule="evenodd" clip-rule="evenodd" d="M69.3207 85.292L64.5133 80.7591H61.0851L54.125 74.1964L47.165 80.7591H43.7369L38.9294 85.292L40.8184 87.181H67.4316L69.3207 85.292Z" fill="#4A454E"/>
<path fill-rule="evenodd" clip-rule="evenodd" d="M69.3207 24.82L64.5133 29.353H61.0851L54.125 35.9157L47.165 29.353H43.7369L38.9294 24.82L40.8184 22.931H67.4316L69.3207 24.82Z" fill="#4A454E"/>
<path fill-rule="evenodd" clip-rule="evenodd" d="M40.8184 22.931H67.4316L86.25 41.7494V68.3626L67.4316 87.181H40.8184L22 68.3626V41.7494L40.8184 22.931ZM41.1159 23.6492L22.7182 42.0469V68.0651L41.1159 86.4628H67.1341L85.5318 68.0651V42.0469L67.1341 23.6492H41.1159Z" fill="#4A454E"/>
</svg>
